<mxfile host="Electron" modified="2024-01-22T09:40:22.667Z" agent="Mozilla/5.0 (Windows NT 10.0; Win64; x64) AppleWebKit/537.36 (KHTML, like Gecko) draw.io/21.2.8 Chrome/112.0.5615.165 Electron/24.2.0 Safari/537.36" etag="3SOOiruBbTI1ydVpY2y-" version="21.2.8" type="device">
  <diagram name="Page-1" id="2XWkQP5S-hDbL94sL5Vg">
    <mxGraphModel dx="1418" dy="820" grid="1" gridSize="10" guides="1" tooltips="1" connect="1" arrows="1" fold="1" page="1" pageScale="1" pageWidth="3300" pageHeight="4681" background="#999999" math="0" shadow="0">
      <root>
        <mxCell id="0" />
        <mxCell id="1" parent="0" />
        <mxCell id="RHCFxmJjhwdRAFU584P4-1" value="" style="shape=image;verticalLabelPosition=bottom;labelBackgroundColor=default;verticalAlign=top;aspect=fixed;imageAspect=0;image=data:image/png,iVBORw0KGgoAAAANSUhEUgAAAysAAAJLCAYAAADn1AmyAAAAAXNSR0IArs4c6QAAAARnQU1BAACxjwv8YQUAAAAJcEhZcwAADsMAAA7DAcdvqGQAAH9USURBVHhe7d0PcFRlnuj9H8JcJmTXATqRECU0owbClf93Ru5Eg7DovA6XIdcxFHnrvVO6M+xqagq41lKFW/rqlL5j3uKuxVBb0Vmcxdpbb5ECxzeRl5nalRVB4+A4ARxc/kRdQhgDSpqgd0Ne3ivyPs85z+mc7j6n/5zuJCfJ91PV1aef7qfPvz6nz+88/8bNX7DwugySioqodHV1mlcAAAAAkL0bzDMAAAAAhArBCgAAAIBQIlgBAAAAEEoEKwAAAABCiWAFAAAAQCgRrAAAAAAIJYIVAAAAAKFEsAIAAAAglAhWAAAAAIQSwQoAAACAUCJYAQAAABBKBCsAAAAAQolgBQAAAEAoEawAAAAACCWCFQAAAAChRLACAAAAIJQIVgAAAACEEsEKAAAAgFAiWAEAAAAQSgQrAAAAAEKJYAUAAABAKBGsAAAAAAglghUAAAAAoUSwAgAAACCUCFYAAAAAhBLBCgAAAIBQIlgBAAAAEEoEKwAAAABCiWAFAAAAQCgRrAAAAAAIJYIVAAAAAKFEsAIAAAAglMbNX7DwupkuuIqKqHR1dZpXQBAlUlP3LaldPEvKp5skOSNND/1GDplXAAAAGJ0IVvJUUjtBbrvNvPB1XT75h2ty7jPzElmr2dggDYvMiziCFQAAgLGAamAIsRK5ucyeat+xW9Y91GQeBCoAAABjASUrBTVOZvz5eLl5KiUphVEi9c+tlTVyRLY8flioUAgAADC2ULICAAAAIJQoWSmo7EpW7HYu1+Wj//aVFNXeIDffNk6lXpdLv74mHSfUd6SkWdkS3aQ+950bZKr6XJFJ6r+kPn/4Kzl3wn+XTpo7Xm5fqvJMNQke+t+9Ju+/lfQdPvP75P+5Jj2DWIJktVkpo2QFAABgLKJkZRjdrAMbKyjRxsnUpTeoQCUp7XvjpcS8sulgZrws/aH9OSdw0IqmjpOb1ecr55qEJCUq3/zvpQ9UvEy6239+t/1wgiy421neQTJ9ilSYSQAAAIwdBCvDRgcNugTmSzn8367JJ5dU0lRdopKUpgMWd/Ax1y510aUaH/3DNfU5/Vn78x+9a5eGpAY4ytzxcpsVBKnv//VAvj/8+ivptz6gS3rstIRSFZVv/p2mlOfda/IH8xk773Urb9GdKsi6yfo0AAAAUDAEK8Oo/92vTFWx6xL70A4Q3Gn9VrCS5IQKGFQw8/7f6+pX7qpa16XnLRWwfGS/KkoKHiZF7GddrcxdTezKia/kfRV0pARFlnEyY6ldamJVR1NBzBXrle2KWpZ43tmFLl0pkWjd/VKruy0+3ytddiIAAADGEIKVYdQfcwcbNnfaFY/3tStOG5GbxknJ3Buksna8LPjz8bL0r5wxX8ZJUUrRSmZFkaSAQ33/VF1l7NJX8kevdjOaCnZ0TFV0+ziZZKfkZ+ZSef7lBml+ea00rpol5efPSOuLtFcBAAAYiwhWRqBJOkD58wlWO5LbvmcavU9NX7JxJWY/W1XE3KUuKiCp/J6dNyV4KjFtVKbeIPNVIKSDodTHeMmxCUxOutXjE3sSAAAAYwzBykij25DoAMUq8bDbkei2K38w7VecamApTjhVxOxG8fFgQwU8VrDx0TX/0pOhdPawPGYN/Lhbmvb1Svn0WdLwyFKJmrcBAAAwdhCsjChOKYhpJP/3djsS3XblSkL7FT/2Z+wG9Q7TcL4lsT2KpcduQK8DGadRve/j779KzZ+XHjm0Z5c0HVWT9AYGAAAwJhGsjESXrkvMcyyVxK6FE1i9gYnV09j7CYFGasP5OBUAXdINUm6jty8AAAAMPYKVkWjqDXL73e4G7WpaBSO6kf3NVgP7VHZvYCqYyanXruty7rAOisbJzT8cL5V6nglByzgpuVvN9688ukoGAAAA8sQI9nmyR6M3L3zpsVMGRrR38lz69Zfx0en1wIt6PJNs0zzpsVc+FLktKY/lphtkwQ9v8C95UfxGwE87T03l0yPZ+43YH1yJ1D+3VtYII9gDAACMRZSsjDBX3rpmD8boHoNFBwumDUuP6fUrxWfqMx+lj0v9RsDX8zysgi2dP6G9iw5udHsXNd/CByoAAAAY6yhZGRPGyQxdRUy+UoGFX0P4cVJSa7dr6VcBSMIo9sOGkhUAAICxjJKVscAM7tj/oU9Deot6z2cQymE3fbHUVdMqBgAAYKwhWBlDiu68QSrnpo40P0kFMzNqnXYp1+WTUJSqaD3y2yO91tSS9Wul2RrZXj/ulxorFQAAAKMZ1cDGiKw6Ahi0hvL5idbdLxsWz5Ly6SZBzkjTQ7+RQ+YVAAAARieClTFk0twb5Jal46yG9O5ewZxewPTYLYUd2BEAAAAIjmAFAAAAQCjRZgUAAABAKBGs5EGXHAEAAAAYHAQrAAAAAEKJYAUAAABAKBGsAAAAAAglghUAAAAAoUSwAgAAACCUCFYAAAAAhBLBCgAAAIBQIlgBAAAAEErj5i9YeN1MF5weNLGrq9O8Gn1G+/qNVNGZlfIfa5fImkVTRI7ul3U/7zDv+ItWL5W6/7RYlkw3CdIr7fvaZc+eDmEPAwAADA+ClTwQrIRLzcYGaVhkXjiyCFaidfXSuEoFNl7OH5Etjx8mYAEAABgG46eVlT1tpgvuG9+YLJ9/ftm8Gn1G+/oVzMylsnnL92XDf/mWfOdrZ+QfT1wxbxTWuAufS8dH/yrvHVGPC1PkW5VFIhf+VV55N2Y+4UEt2//+F9+UP7VKUvbK9p8dlJda3pNXjn4us+Z8U8qnT5eVMz9P/x0AAAAYFLRZQRplsmnxk/J+9ZOyvdQkJXDeb5BNxSbJQ03tQPWq8lX3Sv1Me7rQOs92yKE28+jOLojUy1aunrv3vS5b9/QMlKCo79r6+H5p19OLlgzaMgMAAMAfwQrSuCDbjrTIQTW1rDI1IKmqeEAeLlJBwrlXZVufSRxRKuVOq9rYGWlRgUqqDtmzr1c9T5FbbrFTAAAAMHQIVpDBcdnQcVo9R+Th2Sukyk4UKV4hjTMiIv1tsqXrgkn0dqjliLSft6d1Ccaus/b0sJs5VawCn6MfyyErwRY1z1qnKaGZXl5iPQMAAGDoEKwgs4u75QndZKOoWhorytREmWyaXa0u6mOy8/QbctL6UBpnD8vWx5tk3UNN8phnCcYwuWWKXQWs+5L9Wipl88sN0qgez9eZ4OSPvdKtnsrLp9qvAQAAMGQIVpCVvafs6mDRGQ/I9jl29a+DHU0jtPqXj+pbZYmZJDgBAAAYfgQryNJx2XCsTTolIssiEZFYi2y4aN4a4eKBSdt70mpVV+uV9t9nHpsFAAAAg4tgBVmriswZaM8xqXSg/cpIZap4DeiRXVZ1tV2ytc0kpVQVAwAAwFAhWEF2StdKs25QH2uRJ87FXO1XRrCzl8QqSFl0q9RYCami5ZOt5/PdIWprAwAAMEYQrCAL82R75Wz1fFqeOHVc9na9Kjv7dfuV9T7jryTRg0I+1yDN7obrodAh7x7Vz7Ok1nO5KqXOGtn+jLzrlLQAAABgyBCsIKPVc2plmXo+2LFb9lopF2Tbad1+RY+/slZWW2n+hmpQyCB0t8pWb1+r1qpAqnKgmtvMShVgrbQb3Cd1bQwAAIChMW7+goXXzXTBVVREpasrPib4qDPa189Sulbe16UqsRZZcOq4SbRVVTTEq4Ylv+dWs7FBGqzBF7VeaX1qV8HHWkmcRxpH98u6nyc2no/W1UujVYLi4fwR2fL44YGR7QEAADBkKFmBv+IV0uqq/pXsZFeTPf5KpFZa07RfCe2gkEbnnl2yZYdeRj1avaNX2vftJ1ABAAAYRpSs5GFMlKwAAAAAw4SSFQAAAAChRLACAAAAIJQIVgAAAACEEsEKAAAAgFAiWAEAAAAQSgQrAAAAAEKJYAUAAABAKBGsAAAAAAglghUAAAAAoUSwAgAAACCUCFYAAAAAhBLBCgAAAIBQIlgBAAAAEEoEKwAAAABCiWAFAAAAQCiNm79g4XUzXXAVFVHp6uo0r0af0b5+I0ulbH55pSwxrzydPyJbHj8sXnssWr1U6v7TYlky3SRIr7Tva5c9ezo8Pw8AAIDBR8kKxrxoXb00rncHKtoUWbJqpTQ+t1SiJgUAAABDi5KVPFCykqWZS2XzI3Yw0L1vtzy2p8e8UUimZCVN6YkntWzP/3SxlFslKa/LHrVsVt6Z6vseUd+nA5ij+2Xdzzt0KgAAAIYQJSvwtXrOk/J+9ZOyvdQkeCqTTYv159bKapOSrKZ2oNSifNW9Uj/Tni6omVPFmsWFSzlV29LLVq6eu1WgstUJVLSzHbL18f3SrqcXLRmcZQYAAEBaBCvwtfdcm3XxvmzGCqmyk1IVz5XlReo5dlL22ikjSKXcuUg/n5EWz9KeDtmzr1c9T5FbbrFTAAAAMHQIVuCv7w15Kaaei6rlUZ/SldUzqiUqMdl57rhJSXWo5Yi0n7endQnGrrP2dEHdMsUuIekWqdlYL80vN5hHvTy/canUeJWMOKUxRz+WQ1aCzd1GpbP7svU8vbzEegYAAMDQIVhBWvHSlcg8OyHBPLk3op76T8k/9tkpns4elq2PN8m6h5oGqb3KgPJVK6Vh0RTzSlNBzKLF0vDTBtlcbZIc8QDnkv3aavfSII3q8XydCU7+2Csq/pHy8qn2awAAAAwZghWk13dCDvSr58jdsqnYToorrZJl6qmz54SctFOGT9t70nr0jLTu2C1bVFCkAyPr8dT+eKnOkvX3S4096a361njXxwQnAAAAw49gBRlckG3nTqvniCyPlNlJljLZNGO2ej4tL3VdsJOGVY/s+vlvZFebq5G8ZjWU3y2tVsAyS+5MLl1R4oGJDnisz/VK++/p/QsAAGC4Eawgs4uHZGe/SHRGzUCPXyOqYX2P/PaIbiif1PbEVPEaoAIeq7raLtnaZpJSqooBAABgqBCsIAsX5B97dEv72XKvaWhfFZmTsWF96J29JFZByqJbfauHRcsnW8/nuwe3rQ0AAABSEawgKye73pKD6tnuxrhMvlsSydyw3qEHhXzO7p0r3nC9oEqkvq4yzUjzlVK3ym50nxh0dMi7R/XzLKn1XC4n3xl51ylpAQAAwJAhWEGWjssL52IiRXPkuxV2FbBsG9YP9qCQ0bp7Zc2qldL43P1SX12SELREq3WgtNJuOH/+iOxJCjp0t8pWb1+r1qpAyhXw6BHsnXxJXRsDAABgaIybv2DhdTNdcBUVUenqymU88ZFltK9fqnmyvbrW6gFMN6x/om13Vu1VajY2SIM1+KLWK61P7Sr4WCvRunppNKUnns6fkabHf+MZdKTNqwKcLY8fzmlUfAAAABTG+GllZU+b6YL7xjcmy+ef24PqjUajff1SfSYTipfJiklqMva2/Neez+zkDM5eGC+z5kyX8j/Vg0Lulb9554p5p3Aun/hAXjn6uXxt8hS5cXqRqFnZzvdKe/Ne2b7zD/K+SUqm8/7+4niZUv51tYy61wBN5dvXJtu3v0+gAgAAMEwoWcnD2CtZEVk950l5NhKTnceaZFs27VUAAACAgGizguwVr5AfZzNiPQAAAFAABCvISlXpCmldWG01QD947o3hH7EeAAAAox7BCvwVqwCl+kl5Xz2aK+1ApTPWIhsu2m8DAAAAg4lgBf4muboB7o/JwY4dsubUCB4EEgAAACMKDezzMBYb2AMAAABDhZIVAAAAAKFEsAIAAAAglAhWAAAAAIQSwQoAAACAUCJYAQAAABBKBCsAAAAAQolgBQAAAEAoEawAAAAACCWCFQyRMtm0+El5v/pJaa2YZ9Jy5XxHg2wqNkl5KfT3AQAAoJAIVjA0iufK8iJ7MjqjSlbbk4PABCCLV0iVSQEAAMDIRLCCodF3Qg7025Od507KXnsSAURnVkr9xnppfrlBmjdWmtT0otVLZfNz6vM6j/Wol811lRI17/sJmg8AAKAQCFYwRC7ItiPPyIK2Z2RN13GThlzUbLQDhsafrpQ1i6aY1MyidfXSuH6xLJluEixTZMmqldL43FLfwCNoPgAAgEIhWMEoUyrfNNXNhszMgdKH5+tKTGLhdbXsl6Yd5rGv16RmoJZtwyod2PRK+77dsuWhJlmnH0/tl/bzKnn6Ymn0Kp0Jmg8AAKCAxs1fsPC6mS64ioqodHV1mlejz2hev9VznpRnIyIHO56RDRdNolZcZrUFOdl3wX5t2J+Pyc5jTbKtT7cbWS8P+wQNned2yJquxPyJ1DxKa6RxxmyJmu/ojLXJS+feEJnhno/9npSulVbXZ9OKtciCU07JjrOcA8u9es4D8uNIJF5qoOe75dQbctK89qJLPBoWmRfq4r71qV2y66x5OViq75fm9bNEju6XdT/vMImpnGXrVgHHY3t6TKqjUja/vFKWeCxz0HwAAACFRMkKPH10JWY9zywqs55t6uJ+9nppXrheWisS02+dpJ76T8k/OgFEYHYA0VyZGHxEI9Xy7MIG+bGej4esApV0Js2T7Wq+z7oCFU3Pt3nENtavlDutIOqMtKQEHFqH7LFKaKbILbfYKbag+QAAAAqLYAWeTvbbF6nRSaXWs8Xdo5dX+pWLpgRioH2K+7HunB0ApbN6jlMiE5ODHTsG8h5rkYP9KpDwCkou7nbNR31Op/W3ybp4musRL1Vxi8jDlbWyTJewuOfZcdp+u6haHnWtbrJDLUfsqlFK977Xw1PSMHOqWM1Njn4sh6wEmzsY6+y+bD1PL3dVXwuaDwAAoMAIVuDt4kn7ol8FJfFShUkl6oL1tBzUMUdKurqAVcFKXopXyI8jesKulrXh4kBVsZN9x2XDkR2y0/QoVnD9p+WJtibZ5p6nCoKeMPFVYglTkrOHZevjdpuO1CpTw+iWKVKunrq7L9mvrepbDdLoblvzx17pVk/l5VPt11rQfAAAAAVGsAIfF+VfdWBQVCK32QmyOjJbXdT3yOu6iljRHPmuGUixSn1GO9ufrh1KFkzQI7G3BtqjDAkVHJ3e7dmdslMdblSovlWWmMmcgoyg+QAAAPJEsAIfF+TjK/p5ttxrVYEy7VKuXJS9VhWxiHzTtB+5bZIuDjktr+dZsOIEPXmX0CBBPMBoe09arepqvdL+e/9G+Y6g+QAAAAqFYAW+EhvZ210CW4HElR7RfaDZ6fPkXh2rqADmI/WEEDFVtQb0yC6rutou2dpmklKqfClB8wEAABQYwQp8nYydsoISqzF9aZUsU9NWVS8zGn20ZK5UFZfKTP3heOP6/CU03g/KVX1tzDp7SawCkUW3So2VkCpaPtl6Pt/tamsTNB8AAECBEazAX99FsTq2UsHDaquKllPVy1QR0wFBoRrXK05wJJEqWW2lJFGBUfYDPpbIraZNzaAbokEhc9ch7x7Vz7Ok1nO5KqXOGvjxjLzrlJhYguYDAAAoLIIVpDHQyP5e3S7FVdVrb0x366vSTe9dB2J5Nq7XTImNbifz7OK1stoVbFTpgR8X1lqlO+kdl9et2msReXj2ioTv0ANari5N06tXQDW1i2WJ1devSPmqe6XeKmoKB92tstVr16q1KpCqHOh+eGalCrD0wI5KUhfFWtB8AAAAhcQI9nkY7eunOSPZW9yjvxevUMFDtbmI1d3+evem5VZV0SDNMyLpR7BP+N4k/afl4JXZsix5BPtk6b4jYVmTR7C3EhNks8xDMYJ94jzS8BjRPlpXL41WSYiH80dky+OH7RKtJEHzAQAAFAolK0jLLkGxHYy5BlR0qohphWxc3/eGrDnWIjtj7i6DY3LwXIusO7JbXsimK2HzHQf7Ez/bqYKdnR2HMgZVuQrtoJBG555dsmWHXkY96ryjV9r37U8bcATNBwAAUCiUrORhLJSsAAAAAMOFkhUAAAAAoUSwAgAAACCUCFYAAAAAhBLBCgAAAIBQIlgBAAAAEEoEKwAAAABCiWAFAAAAQCgRrAAAAAAIJYIVAAAAAKFEsAIAAAAglAhWAAAAAIQSwQoAAACAUCJYAQAAABBKBCtIo0w2LX5S3q9ukE3FJmnIOcvwpLRWzDNphRKG9QMAAIAfghWEW/FcWV5kT0ZnVMlqezJETMCzeIVUmRQAAAAUBsEKwq3vhBzotyc7z52UvfYkAojOrJT6jfXS/HKDNG+sNKnpRauXyubn1Od1HutRL5vrKiVq3vcTNB8AAIAbwQpC7oJsO/KMLGh7RtZ0HTdpyEXNRjtgaPzpSlmzaIpJzSxaVy+N6xfLkukmwTJFlqxaKY3PLfUNPILmAwAASEawAuSlVL5pqqnlbOZA6cPzdSUmsfC6WvZL0w7z2NdrUjNQy7ZhlQ5seqV9327Z8lCTrNOPp/ZL+3mVPH2xNHqVzgTNBwAA4GHc/AULr5vpgquoiEpXV6d5NfqM9vWz22Osl4eLYrLzWJNs6yuT1XMekB9HIvG7452xNtly6g05aV6nKJ4nm2bcLcvdefpPy0und8vePpMQ58zPvEzSeW6HrOm6YF55qypdK40zZks0TQAx8D0B10/NozXDPOJiLbLglHeJkC7xaFhkXqiL+9andsmus+blYKm+X5rXzxI5ul/W/bzDJKZylq1bBRyP7ekxqY5K2fzySlniscxB8wEAAHihZAXZmTRPtqsL+2ddF/JaNFItzT6Ny6sqGuT9hbXycHKeotny7ELdu1eZSSmM1XMapLkyyyAiWY7rF2geI0al3GkFUWekJSXg0Dpkj1VCM0VuucVOsQXNBwAA4I1gBVmIyMOVtbJMl0B07LDaj+jHuo7T9ttF1fJoqT0ZV7pWmmdE1ERMDp5rkXUmj5NPl0dFZzyQ1GXwQPsU92PduZh5Pw01Px1o6PklLmObNS+R0/KESUstnclx/S7ujn9mQVuLHNRp/W0J6xh/+JSqaIdajthVo5Tufa+Hp6Rh5lSxmpsc/VgOWQk2dxDX2X3Zep5e7qq+FjQfAACAD4IVZKdfX+w3ybaLAxf6J9VF+xMmjphZ5C4lKZNNM2ZbUwc7mmRD1/GEalQ63xorEIjI8khhSleqiuyLXz2/xGV8w8xrttybHFC55bR+BXL2sGx93G7TkVplahjdMkXK1VN39yX7tVV9q0Ea3W1r/tgr3eqpvHyq/VoLmg8AAMAHwQqyEJOduo2JeeX20RWPUg9nbJT+Nnnhop2U4uJJq0QiWjJ3yMYn8Q84cly/sab6VlliJnMKMoLmAwAAMAhWUHiTSuyqP0XV0lxtjz6f+qiVZdaHC+Nkv10ysaxyrax2Vy0rnifbK+1SnrP9ydW/kE48wGh7T1qt6mq90v57/0b5jqD5AAAAkhGsYHSIV9myG+/Hg6KFJiiKtfiX8iCRqao1oEd2WdXVdsnWNpOUUuVLCZoPAADAB8EKCu9Kj92oXXfb69Xo3P04kqbb45zZVbYSO5M2DfxPJbabKbiiErnNTI54Zy+JVSCy6FapsRJSRcsnW8/nu11tbYLmAwAA8EGwgsLrOyEH+tVz5O6k3r4GkdUbmMjOY8/ImoSAKLWB/+AokVtzXdchGhQydx3y7lH9PEtqPZerUuqsgR/PyLtOiYklaD4AAABvBCsYBBdk2zm7t6+HFzbI9op5UpVwIV8mqyvWSmv1WlltUvJl9wYWkW8WqHex7B2X160CHbWus1cktZdR61nqvzw1tYtlidXXr0j5qnulfqY9HQa6W2Wr165Va1UgVTnQ/fDMShVg6YEdlaQuirWg+QAAALwwgn0ext4I9ibZRQ/8qMdT8Rpd3nnPV/9pqxcur+91SzePuOIV0rqwOmFMj2R65PwD5w65uifOb/3i0s5bd4ns3dPYUIxgnziPNDxGtI/W1UujVRLi4fwR2fL44aQqd7ag+QAAAJJRsoJBc7KrSRYca5GdsVjixWm/aUdyJHOgkrW+E/KSmk86euT8hyvXy/Z0460E0feGrFHreVCtl5sOjnZ2HPIMVLTQDgppdO7ZJVt26GXUo847eqV93/60AUfQfAAAAMkoWcnD6C9ZGSlMCYm0qQDIr8F+mayes95q15K2lAQAAAChQckKRj4zCGVnz4k0DekvMMAjAADACEOwglEjOuMB2V5aljIiflXxPNk0x2k/c1peolQFAABgRKAaWB6oBhYeq+c8aVXxSivLBv0AAAAIB0pWMCrsPfWMrOtosxq5J4ePdkP3HYVt0A8AAIBBR8lKHihZAQAAAAYPJSsAAAAAQolgBQAAAEAoEawAAAAACCWCFQAAAAChRLACAAAAIJQIVgAAAACEEsEKAAAAgFAiWAEAAAAQSuOnlZU9baYL7hvfmCyff37ZvBp9Rvv6ZW++PPjEo1L77ydIx+//VbIfJD5ovpFj2vKfyMb/7XsyrfdNOfGZSUxyx9qfyI//8/dkbtklaf+XT03q6DHa129YTJsv96yqk++q7frdmnvkbvWYWzZB/vgvo/M4KqwyuefRv5L/9X8pk95DH4jPYYkcZHOey2Qsnif4fwCyQ8kK8jZteY1USo+88+p+yeVUmimfPpH/9RNPy4PzTMKIUyZVc0rUc4/0+P2BT1sp1ZX6MyKRyE0yzZoaRUb7+g0HtU3/cv0D8h21XSMmSYtU3iU/enSd3GFejyX2uSLbdb9JSvSGi/XIRTsBeSotzXCey2RMnif4f8jtuMVYRrCC/KiTaW21Opl2HJI3c4pUMuXL4kQees5F0Sk56bdtPv1ATsf0RI90nPogp2BvRBjt6zfkyuSeB+6ygpRYx6vyy2eflp+Zxy9bT6lt/KZ8YH9wDDHnimyDj2k32UFe7DN+jwVRZp/n9Lk66AYdk+eJsf7/kONxizGNYAV5uWOZvnA6Ja/t/oNJyU7mfFmcyMMuq4uiC/LmC/pi82/llQMXTNpoMtrXb4hNu0Nm6x+VClR+oY4d9+/q0+PNY3QbO+eK7IKPaXPnWMdlx8nczlnwEf9NnsgjUB6D54kx//+Q23GLsY1gBcHNWyffr1TnmrYc7+Zmk2803P28ya6mE7s4YouGEDJcaHuYN1fU6STrbZJ3lSUk4jwXzFjfbjketxjbxs1fsPC6mS64ioqodHV1mlejz2hfv/R0I9VH5DvytvzyhVzaqmSZTwU0f71mjgpoXpRf5HJHaVqZ3LHsQauerxXsaLFT8s7bb8qbx9N9j8q3NjFfrONtaTu4Xz64SS9Libyz4289qqz557s49yfyo+oS6Wh9Wl45bt4065Uilmk7mu0We1V+ZpVGqfkuv0eqq+2LV01XC2pJuts+IOj65SjQ+rnW7aDIPctqrPYY1n57tVnelPmpaTnsh6D7L9N2mabWtfYutf2djLqqRtsheeuA3z4IYr48+GiNVEb0BXY6p+S1Z5tTgn9dJ/xH1TKwDtPU9z3g+j61PV9T2/OD5AXO6TgqxP7LRbbbREveLmZZI056rsfRYO/35OVzqOWcd5N6/kw+SNj+upOSB6RSLbN9XjACngeD/F7sPEnnuThnfVRW97l8tJ8H4/znV9j/B1vg410J+ruepuZRpY7v2Unr2LI7eXnzOW6NIfld+x2DSay2g3dJJPnYw6CgZAXBzLvH+gPqeDvzCTRBlvmmldgnkViP/wkomT7Z/uX6R+T77hOZFpkj31nziPzl8jKTkESfdJ5IzacbLH9//U/kwSr95+FRHzttvnVyt9Xm5pSccv2BO+uVLJapPrKpamHdhXPm6/qD1iKVD0it1zpmWE7f9Qsg2PqZ6gAyVx40Dcctar/NXqb3aWLad5bNt6cdg7T//LeL/tN9Wn6kLioG/ti1EqmsfkB+9OjKwjWE1SWMWf25e4uXIqh10H/Yf622ZcLFgl7+pPXL/TjKc//lKpdtklIf3ql6otJzPY6Gcr8nU+fN7695QL5/1x0J87A7KUm8Ox34PKgE+b34l1Tp7WUHKh2tiTedRvt50JJhfgX9fzCC7L/gv2sdiKkgwBzfyev4oyd+Ivck/FjzOW5V9iH7XV+Qk6d61HOJlPge0CqgsdoOqoCGQGVIULKSh7FbsqJObvpuXpZ3ewZkmy/LOxtu6kTm3JFKvLNWpk5O98iP1B+aPlml3jUzy6Qn1XK99ur++F0n606TPoHrFynLHDRfErPc3nclXcznYuokLuokG7HuBL2p5qkvAPSfhj6Jq8mUuzwDyxm/gxhkOYPKZv30n7q+Q6Wn1fL/Uu87k8+SnJawjvnvv9y2i5PP3HU8oZbLeXPafPUHpv64VcaM+zMQM++s95U5jnQp5tsl1sWIdWwcdJZZ/W7mSeKdetd2z/o4ymv/5SvHbWKWVV8MDRxHA3dUMx9Hg73fvc59TpqaTFhP1/510oLsv7gAv5f4siWdq+O/CbW9Wl9R2yTDTSez3KPnPDgwv9zOS0my3S6WIPsv6O/a9Zs0+/gt9b12VjUfp7TLd/1yPG7NdtCG5Hft/M78anZkeh8FR8kKcjZYXRUPcN39tBMyUCc+cyLTJ9XEhsfqBHqgWX7ZZt8pmT038e7LHWvNH4r+c1MnTecPRdMNln/Resp+kdR2Jpt8VicuGdrc2HfSvO5KJnLuuFl3ptQJ8mcv6Ass5yR5QT44+LY9vyTOcuqT8y92+69ftnfucpXV+pm629Yft7PvPusx28+VZrjreOe7/3LdLnY+dYGk/hRf0dUj3G9++gd581V7P0RK/O/yBZZzOy6nxGOOujjS1U3UH6velvHM6neTfOES5DjKY//lLcdt4rT5STyO7PcyH0fDtd91aYK6IOywL9BLTXK8lCH+Gw1+HrTl+ntRvBrXuwIVffGYMVBRRtt5MJvzkn18FOb/wZb7/gv6u562/MGB4Fk3/lffO5BVzUf91n6x41UrSPNcv5yO22H4XR8/IR3qKVKqq14mM8uj1r2FQGXIEKwgN+qPaHC6KnbJ9QLEVIXQdzn87j59esL+c0g4+ahlqrYy2hdU6SQ0Aswyn3UuT3th5nTdmLnHM7sYW5+s09/JSZifazn1nah0cqlul73s1s+5AEmoGmgugN1pzufiy1qA/Zfbdpkvc3Q+9af3/fVPW2MApTycEobBkGuDXOc4Uhd2sdbMF41Bj6PA+68QnPnk1LhefV5f9GR7HA3zfrd6TlTH0KmkOzd2j4o9cvqEvR6Bz4OOHH8vlqTfpC41sLeF311uL6PsPDgM/w+WnPdf0N/1fLlb/5frICddqYgKdtxBWoIcjtth+V3LZ9JjfWHq2DbO8mSqyo7CIlhBTgavq2KXHC/KnPqozp92tpy7rOnupnnd2co+n/pM2j8/pwQpU1DmjGOg6zd7f198mVzzC7p+hZPd+sXrE7uW4Q6n/rgrzf7cQB3vwd9/SdvF9F4zXJxtkvXv3DmO0vzJuwU9joLuv0Lwmo8/93FkJaTwOo6Gd7/bF5T6t5oYq5gLTdfNn6D7Ly7H34vmPs/ptgC6io2dkEuX86PrPJj9/BKXM1W228XIdf8F/V07F/95dFWdy3E7HL9rXdpiBytzpCqh3Y1z0/XVHL4LhUCwguzNG8Suil2yO5E7shyQzCMAynwSNHe2kr47+3wZLsyy7rrR+dPyrxbnLFPqxWHu61cwWa2fc3fPvQxe+9R8zrUNBn//JeZzfpf6rrwzEKPfo/D1mLP8nbvkFtwEPY6C77/85bpNgh1HQ7vfzUWSYd/FPSVt6ns/7dFVXYyUYyvo/huQczCsONsrctfTonu20tWsXtNVciJ3yd3z7M9kNMrOg9nPr1D/D7Zc91/g33Wa31B2cjluh+d3rX1wUlcNLJGSeGFNGY3qhxHBCrKkDtS71EGvi9Jz+kPOPZ99si/kHVizDEp2AZAj85+jt+zy2X8WiX+snsyflv8dtlwv2gynvnlBLyAHZLV+nnfpzPZLqAdvPpftXUZLwP2XYbsMSruEjHJdl4C/ibQ8jqNB3X+ZeMwnnYzLkH6bDf1+Nxe1CeuneygaOKe+ldM5Mt15MMjvxQlU1YWiyqvvXOu2AB8cOGTV96+8K7ve0Ub7eTBVdsdy1tvFEvx4H/rfdY7HbUaF/l0bpt1dfPuYnkxzvlmLgiBYQVacBnW51tPMPV+ud2CdO5FzZI7PnTx3Y8DUP3f3nRM33bOMaSTp+ecYNN+A+F3ADBsmfgfM9w5buj8/n0aHVk8vpj5yQS8gB2S1fl53xMxFSUKa752z4Psv1+3i3NmOzEnsPtZt2ryyrC7QcpbzxX52F0QDAh5Hee+/PDjbJEtO9Zxcj6Nh2+/WxVGPvHMwaXlvSm5Yr+V7Hsz196LEt79un+K++/4HeSuH0pXReR4cuv8HW+77L/Dv2rmIr75H7rBTUqnt6ns85HTcDsPv2vHpB3JazdvePgM3CGhUPzwIVpAF06Au53qaAfLlfFHmFNeKVK75iTyoTq5x+o9I9wNvNQZM7YXs4kX7ZF25Zp3c4TqzTpu30hofwOoCU0m+wAqaL5Fzx2eOVLv6h582b37Cd2rxPy2/r3MuDpPqSDvbJVKt+6DX36v+eMw2sca+MP8Y2VYzyE126+dcgLjviGWbFnQ/BN4upocYfRGmxx5ImKfzW1vzSPbVX3KQ+UI7yRAdR/nsv4KprJF7XMtr7wu1f8xrR9DjaLj2+xxdfcWj7UeJStdVUXTVMLeg50FLgN9LPABteyWlIf2nWZeujL7z4FD/P1iC7L+gv2tzEa+X7fuP6nV0/9Z0MGaPY+I9VpFLlsftkP+u40ygFCmRqpxvuqLQGGclD2NlnBWr4aR79NcsBcpn+i/PRNezdQdAd6x9Ov4nkErf+fNahvkDfeEnUxcJr50qke97Ln/QfIns7WNfxLklrluZ9zgGLs73JG8TzW+7WGMNXFR/NgH2a7ayWT97+RL3j53mXl+/bRB8PwTeLhl+n1b//bvdXWsWhtd2Ssssp1U1J4c7gX7bxZY6//z2X76c7zUvkxTyOBrK/e7eBwnL4l4GNT+vsWpy3X9xAX4vabeX4ryf6TuzOU+MrPPgUP4/GAGP98C/62musZU86O2aOoK9I5fj1jaUv2u3hH3gc8xhaFCygvTivV8MYlfFLs4d2PRS7659sPtp+aXuu96642PE9EBXr1r9wHsvwx/klR2vyjt6/AKHztP6ovzyhWZTbOxVDB80X6JPD7wir7m/Q+XRy5tYlJ25GDvdHUd7u7xtjdGgB1LrUH8ir+1QJ+7dH0hJARuVesm8fl71iU1awvr6bYPg+yHwdjneLD9T8+xQedz0n/NruirMIAQq3tspvaAlGbkdR/nuv3xdkDdfeDFx/ysxfUGo9kXiBU9+x9Hw7Hf/dnt+pQDBzoPBfi+ZSjqc0pW01YWU0XceHMr/B1vgksugv+tP98svnn3RWj73T00HY+/obqV9AxUtl+PWNpS/azenS2R9LNKofnhRspKHsVCyknqXNDtB82GomLt/sbezG0F4zGC7AGMHxzvSMCVIegDSICUzKBxKVuBv3tB0VYyhFx9oK81YAGMR2wUYOzje4WuaCmR1VTca1YcCwQp8lAXs/SJoPhSUviP0xE/kweVJvbIkNEpMbaQ76rFdgLGD4x3ZcnUUoDtD0J0vVEqPeDbcx5CjGlgeRvP6pWusmE7QfCgwU3xtNSnwlKZR4mjGdgHGDo53ZMW70T/XMeFBsJKHsdBmBSOZ7kbyQamutLsYtehGiacOyVsHBqNB8EjBdgHGDo53ZJIYrOjG/m2vNssH/DhCg2AlDwQrAAAAwOChzQoAAACAUCJYAQAAABBKBCsAAAAAQolgBQAAAEAoEawAAAAACCWCFQAAAAChRLACAAAAIJQIVgAAAACEEoNC5oFBITGWRG8vlrpFE2XJ5PEmRaT78lV57+gV2fXhlyYl2QSpXztF1kxWnz32hTz2u6sm3SVSLM//YJKUm5dxl6/Ilt19whEGAMDYRckKMKrpYKFUmv9CPdYWS9Skyu032mnqsfl2k5aO+nzj8kkJgYpWPnmirJmVmJYgMlG+pQIVrXzhRKmxJ0cwZ3tOlfqISUKcDmg3r50a/23p7bT52xMHfne+zHZ1/0bHtAIdtwAwChCsAGPF5S89SimuyR8vmUlfE2Xz8onWlC4d2fJ3F2Wd8/hVrzS1X7Pe8xS7Ku9dtie7j12VQ/ZkolifPOb+zr/7QtrNWxg5au6b6hHQjpclC1Wgu/bGURCoDpPAxy0AjA4EKwDSi0yQ6fr58hXZ/ruriRdOsS/lkHr4+1J27baDEM8qYBgVot+eKg1RHaRck/ZjvQMB7a9U4KmD1ckTpYFSEwBAAAQrwHCZuVQ2P9cgzS83yPN1JSax0L6UT0zJRoJL16TbTI55EV11ya5a8/y3J5hEZG+i1C20S1PaD1ySrb9zlQTErsrW3aakbPIkqfOtujRebjHVBaFx3AKAgwb2eRg7DezLZHVFjfy4ZLZEi0ySxKQz9pZsOXdcTvaZJA9VpSvk0RnVsiw53ymVz6TEFa+Q1oXVEu1vk3VH3kh9Xy3HpsXr5eGimOw81iTbkuZbVaEu/GfIwHvF82TTjLtleSQSv6PbGWvxnrf67qrSGmmcUaLW0WmMkGZZHV7z6D8tL53eLXvTbBetZmODNCwyL6RXWp/aJbvOmpcFVHNfqTSohes+1iuPqQtJS7xR+1Vp+rsvUqpnRb99o2xYODG10Xuyzi9k3T85JSYDjem9JMw/rYmy+S9ulCW5NLCPTJT6JcXyrej4+DLrxv8t/6zWLWYSfDjbx3ZNWn91SXb55nHWMdPnfARdTp986To30KUdjQtlYDm9vkPtv+1q/9nb2KybONt9gto2N0ptwuevqM8n7RPdjkJXE0y3v5zPuH8vKu35Reo3lk2QkvA7Cypx/fT2qPuz4oFqa5evSfvRL2RryvYMuF1compdN2RY1+TjI8hxCwCjESUryGCebFcBwrMz3IGKpi7OI7XSvLBBtleUmTQ3HVg8Kc2V7kBFM/mqG2RTsUkaBDpweX9hrTzsCiI0PZ0aJNnr2Fyp19Hdajr9svrOo2i2PLvwSWn13C5Dr0tdhGnne10XYbEv5bx+Vu91WQnJJsQvxMJOX5Q3/+BGWeO6eNR04/+GH4SntCTYcqoL5fv8861ZPiWrhta+81aPlAtsdfFeoS7kN6sLdF21K+Hz0UnSmFSdKzrFXu7uzqQqgm5OiUA0sZOFrAKVQlPrV6fb16jtkdC+Rk0vUduz+T67fVaKHLeLw27Lk2VQ5hLsuAWA0YeSlTyMhZIVu7RCXcD3n5YnEkoLnJKI2SI9O2RN1wWTbovnk5gc7HhVNlw07+uSiNnqAt8KYNR3tqnvtN5QClKyEpGDsdOyLKKWy1rmQ2qZnWVTy1x8IakkSAUq1bWyTE+qz+88d0i2OcuqPm+VKKl1PNvxjFoHk6yVrpX3VXBjrd+5t+SFroHSlyr1XqMOfNR7XssZp6uBPbJYlkxXF3r7dstje3rMGwVm7mq3H7goWz80aSl3i9Nw7uYG7ErYvsM/fnBKVpw79lZbiT7Z42pTY93N1heJmUpLdDWwP9MNw1Pvbqcy2y3XkpWgy2ny2aUvV1ztgyZIzbdvlAar+pVf6Zi93dtVELFEBQmivqMp6TuikS+lMz4/Z93MS708B76Il9zo5dQX3Zr7t+SUACT+vpKZfeq7LwKUpuUscf10aUhLe58p0XJvz+R1CbZdLK79npinWO3zDCUkJm/g4xYARglKVpCVzh590W9eWNRF/8XdsubIMymBig46Gk2goi/W44GK1ndcth3ZITv79YvZ8uNBKH3QgUrnuR2y4IgOrtzLlhyo6ADnbhOo6ABptytQ0S7I3i61jsd2JAYqOmjSQZpysEOtnytQ0azt0nFaTUVkeSTN+p09LFsfb5J1DzUNXqAS59N70GWvnoZGCnXhtsi5SNRtJRLv7Hd++IU8dkBXHRov37o1TelKrE+2xjsBcC7kCymP5VTvbfmVWq7dupqYe9m+lEO/uyRN1hdNkJvdBYJJdKCig7B1Ht8xEKgk0YHN36mgwlUlSi+nPT+R6aY0xZq3dRGfqXcq9b5XG4xhYgWl/+QEKpq9Pbccs0szlsyy91eKrLeLzSl10vs9MU+f2ecT5c60JWOj8bgFgNwQrCCtk7FT1p9idMYDsr1inlRlU3VrUoldHSL2lk+pwgXZdk5fzKvvLZkrVdZUAcVaUgMoT2Xy3RITVJ32KskxEgIepXiuLNclQyrAeSEhiHG5eFIOqqdBWb9cqYupdfoCK+HC1PTSlXc7gGEUMWO4XL4ie/zu6H941WrcXa4u2L2q6AyJPJczHlBEJkiNHsfkvqnyvBnLxG5rM15umWp9wlunHozTHaRkck1adRsa88rNqZo0sl2T9z723h6dH1+1q6tNnuDxexmc7ZIc4MSN1uMWAHJEsIL0+t6QNcfa5GB/RJbN0G1UnpT3q9VjsW6r4h28VBXZPVt1XvG7kleu9Nh3BtVnb7MSCiftfBOUyjet6mg98rFfVS0vTjBWVC3Nelt4PkzVMgyeqabdwORJ0mgGykt96KpHwyzP5bQHWlSf+cEUadDjmOj2Eu62Fhl0D2qA4fRalSFgGmm9fen2KWYyH52mvcmS5TdKjbv0S7d9MVXHEtqkAABSEKwgMxWwbDjyjCw4tkOeOHdaBS4x6SwaCF5a56igxXwUQAFZ7SHs9jS6ClL7sS+k6Ve9skU9dLU1p/rRcHJKFXxLCDRnrB4d3PhVPRuN4lXE7E4U4sGpbtyvkzu/8C9tAwBYCFaQvT67DceGI02ypk0HLy0qcBGrx6xGj7Yn0UmlZsqDUzrR3yMfWQnDqURuzaVnMqdUKNYiC/R2SPfw7CgABeH0MKW7tXUGIfR7DGdj5MDL6dx9142z7TYnur2LbnfSmdD2ZHg5pQfpqtpFb9UdCCidavmtFB8FKtEIzCkFK2hvW3Ywlzg+iu5o4QvZEu82GgDgh2AFaVWVpik16TsuG5y2J67AxGnnIpG7fbonHmig3tlzYuBivu+iWMOM+FQNq6p4wPQiVijH5XXrLm9EHp69wn89i8sS3+s7IQd0BwG+65elIRkUcgTLdOEauyrv6SpI0WKpT9PAPKPBHhQy3+W8fFV+62qcPWCC3GymhpVpb+M/6KNr0MgzmdpapO8swFOA/eddZW2gI4S03TDn4vYbrXZFrbqThITANLWjBQCAN4IV+NO9elXa44xYVb3URbtblR6fxOq+VwUd7nYifW/IS04QoMdhKXXl010XW90P6xen5aWEhvAX5V9NL2HPuquWqflumuN0hVxYe8+12RcMuv3J4rWyyb2suqvj0rXSunC9NKvlGeB0EGDWL6Xtju7yWOWrXiurTYqXmlq722KtfNW9Uj/TnobTc9REqf226259ZGJivX/d2Pio3YvWmh9Mlc36swnv293RPv8XNyaM7ZGsZompZqWUL7wxv8DHU57LqYKADe7toD6vu8t9Xndh61eUMaSuyh6nF63lev1cjdOtcUlMlad0HQyo73jXOhDVNvqz4qT2HbpjAf8gJPf9p8dTMfvBpOjlHOie+Kq0FKhXOLs3sPFyS7re6AAAaTHOSh7GxDgrKSPQe/AcF8UZE8W8TOEzBkl8/JJUujvilyatl2cj6cdZ0Z/LrjcwwxnfxbxMlX5+vvS4Lad3+46zMlQj2OdtyMdZGciTwmMkc9/POi5ftXpx8hsTJdgI9ualr9TxM4IsZ9o8uhtdtTMaFiaPxWHLfbs76+a/DdJ9px78UA+W6Ekvq+462bz05PzOzMtEqdvTkf3+G9h33SoY9h6k0St/Htsl7TrZ9Bg67x29ktC1MQBgACUrSOvkRbtx/boO3SNY4r90p74Y79jhM4DjBdkWz2eSLDHpjLXIujafwRIv7lZ5TqvvNq81PbjjMXs8l4+ueF6F5Ef3eNZmdx6QMN8My3qyq8lqt7Mzpj5n0ixqOx08p/LpcVt8AhXtUMsRabeGo1YXLPteD2egMkw6rTEvTDeyDn0xfya1Zyv92XW/+kJaO03bEMdl0y5AXSR7X7zaDrVfkXarJEftB/X5dJ/NR5DltLbDAbUdzPJZ9HYwbVgO9Zq0EDj0Tx7Lqi7+u1WAqdctbaCixfrkMbV92pN6L9MX860Hrvjmz33/XZP3/vliyrLqQSKb0gaqAcSuSova3+mUT54oa5ZPkc1px1sBgLGLkpU8jIWSFQDIVbxEyKMkbPhkLiEpLDO/tKPNT5Ca+6ZYJUO5lDwCwFhCyQoAoKA6f9dnN7qP3ijP3+dubzOGmMFA0zfW/3KUDLQJAIOHYAUAUGBXZauuZqWmylXAMjAY5tRB6MAg3HSj/823p46IH9WN+u9z2iQVrlE/AIw2BCsAgML78AurDYpuozMmxfqkxSpS0b2PTXEFbPaj8Qc3yhrdIYFuk6O2U8Y2PQAwRtFmJQ+0WQGAkWKo26zYorcXS92iiTJ9shlw0nB6AdNj6PAvAgD+CFbyQLACAAAADB6qgQEAAAAIJYKVPFCqAgAAAAweghUAAAAAoUSwAgAAACCUCFYAAAAAhBLBCgAAAIBQIlgBAAAAEEoEKwAAAABCiUEh81SzsUEaFpkX0ivd5y9Ly4u/kUNnTRIAAACAQChZKagpUj59ljT89H6pMSkAAAAAgqFkpZBmVkr9IytlzfReaX1ql+yidAUAAAAIjJKVQjrbIb890mteAAAAAMgHwUqBdXZfNlMAAAAA8kGwUmDR8slmCgAAAEA+CFYGxWX5hPYqAAAAQF4IVgAAAACEEsHKoJglDc8tlZqZ5iUAAACAnNF1ccGVSM3Ge6V20RQpNynd+3bLY3t6zCsAAAAA2aBkZZA4gQoAAACAYChZKbTq+6V5/SyR82ek6cX35NBZSlQAAACAIChZKTC76+JeaX3xNwQqAAAAQB4IVgYFXRcDAAAA+SJYGRST5WZ6AgMAAADyQrACAAAAIJQIVgqss/uymQIAAACQD4KVArMb2AMAAADIF8FKIc2slLpVU8wLAAAAAPlgnJU81WxskIZF5oXj/BHZ8vhhGWtj9wMAAACFRMlKQfVK99Ej0vQigQoAAACQL0pWAAAAAIQSJSsAAAAAQolgBQAAAEAoEawAAAAACCWCFQAAAAChRLACAAAAIJQIVgAAAACEEsEKAAAAgFAiWAEAAAAQSgQrAAAAAEKJYAUAAABAKBGsAAAAAAglghUAAAAAoUSwAgAAACCUCFYAAAAAhBLBCgAAAIBQIlgBAAAAEEoEKwAAAABCiWAFAAAAQCgRrAAAAAAIJYIVAAAAAKFEsAIAAAAglAhWAAAAAIQSwQoAAACAUCJYAQAAABBKBCsAAAAAQolgBQAAAEAoEawAAAAACCWCFQAAAAChRLACAAAAIJQIVgAAAACEEsEKAAAAgFAiWAEAAAAQSgQrAAAAAEKJYAUAAABAKBGsAAAAAAglghUAAAAAoUSwAgAAACCUCFYAAAAAhBLBCgAAAIBQIlgBAAAAEErj5i9YeN1MF1xFRVS6ujrNKyCIEqmp+5bULp4l5dNNkpyRpod+I4fMKwAAAIxOBCt5KqmdILfdZl74ui6f/MM1OfeZeYms1WxskIZF5kUcwQoAAMBYQDUwhFiJ3FxmT7Xv2C3rHmoyDwIVAACAsYCSlYIaJzP+fLzcPJWSlMIokfrn1soaOSJbHj8sVCgEAAAYWyhZAQAAABBKlKwUVHYlK3Y7l+vy0X/7Sopqb5CbbxunUq/LpV9fk44T6jtS0qxsiW5Sn/vODTJVfa7IJPVfUp8//JWcO+G/SyfNHS+3L1V5ppoED/3vXpP330r6Dp/5ffL/XJOeQSxBstqslFGyAgAAMBZRsjKMbtaBjRWUaONk6tIbVKCSlPa98VJiXtl0MDNelv7Q/pwTOGhFU8fJzerzlXNNQpISlW/+99IHKl4m3e0/v9t+OEEW3O0s7yCZPkUqzCQAAADGDoKVYaODBl0C86Uc/m/X5JNLKmmqLlFJStMBizv4mGuXuuhSjY/+4Zr6nP6s/fmP3rVLQ1IDHGXueLnNCoLU9/96IN8ffv2V9Fsf0CU9dlpCqYrKN/9OU8rz7jX5g/mMnfe6lbfoThVk3WR9GgAAACgYgpVh1P/uV6aq2HWJfWgHCO60fitYSXJCBQwqmHn/73X1K3dVrevS85YKWD6yXxUlBQ+TIvazrlbmriZ25cRX8r4KOlKCIss4mbHULjWxqqOpIOaK9cp2RS1LPO/sQpeulEi07n6p1d0Wn++VLjsRAAAAYwjByjDqj7mDDZs77YrH+9oVp43ITeOkZO4NUlk7Xhb8+XhZ+lfOmC/jpCilaCWzokhSwKG+f6quMnbpK/mjV7sZTQU7OqYqun2cTLJT8jNzqTz/coM0v7xWGlfNkvLzZ6T1RdqrAAAAjEUEKyPQJB2g/PkEqx3Jbd8zjd6npi/ZuBKzn60qYu5SFxWQVH7PzpsSPJWYNipTb5D5KhDSwVDqY7zk2AQmJ93q8Yk9CQAAgDGGYGWk0W1IdIBilXjY7Uh025U/mPYrTjWwFCecKmJ2o/h4sKECHivY+Oiaf+nJUDp7WB6zBn7cLU37eqV8+ixpeGSpRM3bAAAAGDsIVkYUpxTENJL/e7sdiW67ciWh/Yof+zN2g3qHaTjfktgexdJjN6DXgYzTqN738fdfpebPS48c2rNLmo6qSXoDAwAAGJMIVkaiS9cl5jmWSmLXwgms3sDE6mns/YRAI7XhfJwKgC7pBim30dsXAAAAhh7Bykg09Qa5/W53g3Y1rYIR3cj+ZquBfSq7NzAVzOTUa9d1OXdYB0Xj5OYfjpdKPc+EoGWclNyt5vtXHl0lAwAAAHliBPs82aPRmxe+9NgpAyPaO3ku/frL+Oj0euBFPZ5Jtmme9NgrH4rclpTHctMNsuCHN/iXvCh+I+Cnnaem8umR7P1G7A+uROqfWytrhBHsAQAAxiJKVkaYK29dswdjdI/BooMF04alx/T6leIz9ZmP0selfiPg63keVsGWzp/Q3kUHN7q9i5pv4QMVAAAAjHWUrIwJ42SGriImX6nAwq8h/DgpqbXbtfSrACRhFPthQ8kKAADAWEbJylhgBnfs/9CnIb1FveczCOWwm75Y6qppFQMAADDWEKyMIUV33iCVc1NHmp+kgpkZtU67lOvySShKVbQe+e2RXmtqyfq10myNbK8f90uNlQoAAIDRjGpgY0RWHQEMWkP5/ETr7pcNi2dJ+XSTIGek6aHfyCHzCgAAAKMTwcoYMmnuDXLL0nFWQ3p3r2BOL2B67JbCDuwIAAAABEewAgAAACCUaLMCAAAAIJQIVvKgS44AAAAADA6CFQAAAAChRLACAAAAIJQIVgAAAACEEsEKAAAAgFAiWAEAAAAQSgQrAAAAAEKJYAUAAABAKBGsAAAAAAilcfMXLLxupgtOD5rY1dVpXo0+o339RqrozEr5j7VLZM2iKSJH98u6n3eYd7xUyuaXV8oS88rT+SOy5fHD4rWno9VLpe4/LZYl002C9Er7vnbZs6fD8/MAAADIHiUrGDVqNjZI88sN0vjTlXagMsiidfXSuN4dqGhTZMmqldL43FKJmhQAAAAEQ8lKHihZydLMpbL5EfuivnvfbnlsT495o7B0iUrFLeZF+RJpWJVDyUqa0hNPap2e/+liKbdKUl6XPWqdrLxqGTY/or5PBzAZ5w0AAIB0KFlBGmWyafGT8n71k7K91CQlcN5vkE3FJslDTe1A6UP5qnulfqY9XWidZzvkUJt5dF82qRnMnCrWol24lFO1Lb1O5eq5WwUqW51ARVPLsPXx/dKupxctGbR1BQAAGAsIVpDGBdl2pEUOqqlllakBSVXFA/JwkQoSzr0q2/pM4phQKXcu0s9npMWzlKhD9uzrVc9T5BanpAcAAAA5I1hBBsdlQ8dp9RyRh2evkCo7UaR4hTTOiIj0t8mWrgsm0duhliPSft6e1iURu87a06FwyxS7hKRbt3mpt9q82I96eX7jUqnxKhlxSmOOfiyHrASbu41KpynZmV5eYj0DAAAgdwQryOzibnkipp6LqqWxokxNlMmm2dXq4jwmO0+/ISetD6Vx9rBsfbxJ1j3UNGjtVfJVvmqlNCQ0yldBzKLF0vDTBtlcbZIc8QDnkv3aavfSII3q8XydCU7+2Csq/pHy8qn2awAAAOSMYAVZ2XvKrg4WnfGAbJ9jV/862NE08qt/tb0nrUfPSOuO3bJFBVM6oLIeT+2PlwYtWX+/1NiT3qpvjXd9THACAABQOAQryNJx2XCsTTolIssiEZFYi2y4aN4a0Xpk189/I7vaXI3kNauh/G5ptQKWWXJncumKEg9MdMBjfa5X2n9P718AAACFQrCCrFVF5gy0y5hUOtB+ZdTqkd8e0Q3lk9qemCpeA1TAY1Vz2yVb20xSSlUxAAAA5IpgBdkpXSvNukF9rEWeOBdztV8Zg85eEqsgZdGtvtXDouWTrefz3eFsowMAADASEKwgC/Nke+Vs9Xxanjh1XPZ2vSo7+3X7lfU+468k0YNCPmf3shVvgB4KJVJfV5lmpPlKqdMDSyqJQUeHvHtUP8+SWs/1cfKdkXedkhYAAADkjGAFGa2eUyvL1PPBjt2y10q5INtO6/YrevyVtbLaSvM3VINC5ipad6+sWbVSGp+7X+qrSxKClmi1DrBW2g3nzx+RPUlBh+6O2erta9VaFYC5Ah49gr2TL6lrYwAAAORm3PwFC6+b6YKrqIhKV1cu44KPLKN9/Syla+V9XaoSa5EFp46bRFtVRUO8aljye241GxukwRpEUeuV1qd2FXyslcR5pHF0v6z7+UAj+GhdvTSa0hNP589I0+O/8Qw60uZVAc6Wxw/nNCo+AAAAElGyAn/FK6TVVf0r2cmuJnv8lUittKZpvxLmQSE79+yyuiluPZrUaP58r7Tr7ox9AhVN592yQ6+b3QjfpvLt20+gAgAAUACUrORhTJSsAAAAAMOEkhUAAAAAoUSwAgAAACCUCFYAAAAAhBLBCgAAAIBQIlgBAAAAEEoEKwAAAABCiWAFAAAAQCgRrAAAAAAIJYIVAAAAAKFEsAIAAAAglAhWAAAAAIQSwQoAAACAUCJYAQAAABBKBCsAAAAAQolgBQAAAEAojZu/YOF1M11wFRVR6erqNK9Gn9G+fiNLpWx+eaUsMa88nT8iWx4/LF57LFq9VOr+02JZMt0kSK+072uXPXs6PD8PAACAwUfJCsa8aF29NK53ByraFFmyaqU0PrdUoiYFAAAAQ4uSlTxQspKlmUtl8yN2MNC9b7c8tqfHvFFIpmQlTemJJ7Vsz/90sZRbJSmvyx61bFbemer7HlHfpwOYo/tl3c87dCoAAACGECUr8LV6zpPyfvWTsr3UJHgqk02L9efWymqTkqymdqDUonzVvVI/054uqJlTxZrFhUs5VdvSy1aunrtVoLLVCVS0sx2y9fH90q6nFy0ZnGUGAABAWgQr8LX3XJt18b5sxgqpspNSFc+V5UXqOXZS9topI0il3LlIP5+RFs/Sng7Zs69XPU+RW26xUwAAADB0CFbgr+8NeSmmnouq5VGf0pXVM6olKjHZee64SUl1qOWItJ+3p3UJxq6z9nRB3TLFLiHpFqnZWC/NLzeYR708v3Gp1HiVjDilMUc/lkNWgs3dRqWz+7L1PL28xHoGAADA0CFYQVrx0pXIPDshwTy5N6Ke+k/JP/bZKZ7OHpatjzfJuoeaBqm9yoDyVSulYdEU80pTQcyixdLw0wbZXG2SHPEA55L92mr30iCN6vF8nQlO/tgrKv6R8vKp9msAAAAMGYIVpNd3Qg70q+fI3bKp2E6KK62SZeqps+eEnLRThk/be9J69Iy07tgtW1RQpAMj6/HU/nipzpL190uNPemt+tZ418cEJwAAAMOPYAUZXJBt506r54gsj5TZSZYy2TRjtno+LS91XbCThlWP7Pr5b2RXm6uRvGY1lN8trVbAMkvuTC5dUeKBiQ54rM/1Svvv6f0LAABguBGsILOLh2Rnv0h0Rs1Aj18jqmF9j/z2iG4on9T2xFTxGqACHqu62i7Z2maSUqqKAQAAYKgQrCALF+Qfe3RL+9lyr2loXxWZk7FhfeidvSRWQcqiW32rh0XLJ1vP57sHt60NAAAAUhGsICsnu96Sg+rZ7sa4TL5bEsncsN6hB4V8zu6dK95wvaBKpL6uMs1I85VSt8pudJ8YdHTIu0f18yyp9VwuJ98ZedcpaQEAAMCQIVhBlo7LC+diIkVz5LsVdhWwbBvWD/agkNG6e2XNqpXS+Nz9Ul9dkhC0RKt1oLTSbjh//ojsSQo6dLfKVm9fq9aqQMoV8OgR7J18SV0bAwAAYGiMm79g4XUzXXAVFVHp6splPPGRZbSvX6p5sr261uoBTDesf6Jtd1btVWo2NkiDNfii1iutT+0q+Fgr0bp6aTSlJ57On5Gmx3/jGXSkzasCnC2PH85pVHwAAAAUxvhpZWVPm+mC+8Y3Jsvnn9uD6o1Go339Un0mE4qXyYpJajL2tvzXns/s5AzOXhgvs+ZMl/I/1YNC7pW/eeeKeadwLp/4QF45+rl8bfIUuXF6kahZ2c73SnvzXtm+8w/yvklKpvP+/uJ4mVL+dbWMutcATeXb1ybbt79PoAIAADBMKFnJw9grWRFZPedJeTYSk53HmmRbNu1VAAAAgIBos4LsFa+QH2czYj0AAABQAAQryEpV6QppXVhtNUA/eO6N4R+xHgAAAKMewQr8FasApfpJeV89mivtQKUz1iIbLtpvAwAAAIOJYAX+Jrm6Ae6PycGOHbLm1AgeBBIAAAAjCg3s8zAWG9gDAAAAQ4WSFQAAAAChRLACAAAAIJQIVgAAAACEEsEKAAAAgFAiWAEAAAAQSgQrAAAAAEKJYAUAAABAKBGsAAAAAAglghUMkTLZtPhJeb/6SWmtmGfScuV8R4NsKjZJeSn09wEAAKCQCFYwNIrnyvIiezI6o0pW25ODwAQgi1dIlUkBAADAyESwgqHRd0IO9NuTnedOyl57EgFEZ1ZK/cZ6aX65QZo3VprU9KLVS2Xzc+rzOo/1qJfNdZUSNe/7CZoPAACgEAhWMEQuyLYjz8iCtmdkTddxk4Zc1Gy0A4bGn66UNYummNTMonX10rh+sSyZbhIsU2TJqpXS+NxS38AjaD4AAIBCIVjBKFMq3zTVzYbMzIHSh+frSkxi4XW17JemHeaxr9ekZqCWbcMqHdj0Svu+3bLloSZZpx9P7Zf28yp5+mJp9CqdCZoPAACggMbNX7DwupkuuIqKqHR1dZpXo89oXr/Vc56UZyMiBzuekQ0XTaJWXGa1BTnZd8F+bdifj8nOY02yrU+3G1kvD/sEDZ3ndsiarsT8idQ8SmukccZsiZrv6Iy1yUvn3hCZ4Z6P/Z6UrpVW12fTirXIglNOyY6znAPLvXrOA/LjSCReaqDnu+XUG3LSvPaiSzwaFpkX6uK+9aldsuuseTlYqu+X5vWzRI7ul3U/7zCJqZxl61YBx2N7ekyqo1I2v7xSlngsc9B8AAAAhUTJCjx9dCVmPc8sKrOeberifvZ6aV64XlorEtNvnaSe+k/JPzoBRGB2ANFcmRh8RCPV8uzCBvmxno+HrAKVdCbNk+1qvs+6AhVNz7d5xDbWr5Q7rSDqjLSkBBxah+yxSmimyC232Cm2oPkAAAAKi2AFnk722xep0Uml1rPF3aOXV/qVi6YEYqB9ivux7pwdAKWzeo5TIhOTgx07BvIea5GD/SqQ8ApKLu52zUd9Tqf1t8m6eJrrES9VcYvIw5W1skyXsLjn2XHafruoWh51rW6yQy1H7KpRSve+18NT0jBzqljNTY5+LIesBJs7GOvsvmw9Ty93VV8Lmg8AAKDACFbg7eJJ+6JfBSXxUoVJJeqC9bQc1DFHSrq6gFXBSl6KV8iPI3rCrpa14eJAVbGTfcdlw5EdstP0KFZw/aflibYm2eaepwqCnjDxVWIJU5Kzh2Xr43abjtQqU8PolilSrp66uy/Zr63qWw3S6G5b88de6VZP5eVT7dda0HwAAAAFRrACHxflX3VgUFQit9kJsjoyW13U98jruopY0Rz5rhlIsUp9Rjvbn64dShZM0COxtwbaowwJFRyd3u3ZnbJTHW5UqL5VlpjJnIKMoPkAAADyRLACHxfk4yv6ebbca1WBMu1SrlyUvVYVsYh807QfuW2SLg45La/nWbDiBD15l9AgQTzAaHtPWq3qar3S/nv/RvmOoPkAAAAKhWAFvhIb2dtdAluBxJUe0X2g2enz5F4dq6gA5iP1hBAxVbUG9Mguq7raLtnaZpJSqnwpQfMBAAAUGMEKfJ2MnbKCEqsxfWmVLFPTVlUvMxp9tGSuVBWXykz94Xjj+vwlNN4PylV9bcw6e0msApFFt0qNlZAqWj7Zej7f7WprEzQfAABAgRGswF/fRbE6tlLBw2qripZT1ctUEdMBQaEa1ytOcCSRKlltpSRRgVH2Az6WyK2mTc2gG6JBIXPXIe8e1c+zpNZzuSqlzhr48Yy865SYWILmAwAAKCyCFaQx0Mj+Xt0uxVXVa29Md+ur0k3vXQdieTau10yJjW4n8+zitbLaFWxU6YEfF9ZapTvpHZfXrdprEXl49oqE79ADWq4uTdOrV0A1tYtlidXXr0j5qnul3ipqCgfdrbLVa9eqtSqQqhzofnhmpQqw9MCOSlIXxVrQfAAAAIXECPZ5GO3rpzkj2Vvco78Xr1DBQ7W5iNXd/nr3puVWVdEgzTMi6UewT/jeJP2n5eCV2bIseQT7ZOm+I2FZk0ewtxITZLPMQzGCfeI80vAY0T5aVy+NVkmIh/NHZMvjh+0SrSRB8wEAABQKJStIyy5BsR2MuQZUdKqIaYVsXN/3hqw51iI7Y+4ug2Ny8FyLrDuyW17Ipith8x0H+xM/26mCnZ0dhzIGVbkK7aCQRueeXbJlh15GPeq8o1fa9+1PG3AEzQcAAFAolKzkYSyUrAAAAADDhZIVAAAAAKFEsAIAAAAglAhWAAAAAIQSwQoAAACAUCJYAQAAABBKBCsAAAAAQolgBQAAAEAoEawAAAAACCWCFQAAAAChRLACAAAAIJQIVgAAAACEEsEKAAAAgFAiWAEAAAAQSgQrSKNMNi1+Ut6vbpBNxSZpyDnL8KS0VswzaYUShvUDAACAH4IVhFvxXFleZE9GZ1TJansyREzAs3iFVJkUAAAAFAbBCsKt74Qc6LcnO8+dlL32JAKIzqyU+o310vxygzRvrDSp6UWrl8rm59TndR7rUS+b6yolat73EzQfAACAG8EKQu6CbDvyjCxoe0bWdB03achFzUY7YGj86UpZs2iKSc0sWlcvjesXy5LpJsEyRZasWimNzy31DTyC5gMAAEhGsALkpVS+aaqp5WzmQOnD83UlJrHwulr2S9MO89jXa1IzUMu2YZUObHqlfd9u2fJQk6zTj6f2S/t5lTx9sTR6lc4EzQcAAOBh3PwFC6+b6YKrqIhKV1eneTX6jPb1s9tjrJeHi2Ky81iTbOsrk9VzHpAfRyLxu+OdsTbZcuoNOWlepyieJ5tm3C3L3Xn6T8tLp3fL3j6TEOfMz7xM0nluh6zpumBeeasqXSuNM2ZLNE0AMfA9AddPzaM1wzziYi2y4JR3iZAu8WhYZF6oi/vWp3bJrrPm5WCpvl+a188SObpf1v28wySmcpatWwUcj+3pMamOStn88kpZ4rHMQfMBAAB4oWQF2Zk0T7arC/tnXRfyWjRSLc0+jcurKhrk/YW18nBynqLZ8uxC3btXmUkpjNVzGqS5MssgIlmO6xdoHiNGpdxpBVFnpCUl4NA6ZI9VQjNFbrnFTrEFzQcAAOCNYAVZiMjDlbWyTJdAdOyw2o/ox7qO0/bbRdXyaKk9GVe6VppnRNRETA6ea5F1Jo+TT5dHRWc8kNRl8ED7FPdj3bmYeT8NNT8daOj5JS5jmzUvkdPyhElLLZ3Jcf0u7o5/ZkFbixzUaf1tCesYf/iUqmiHWo7YVaOU7n2vh6ekYeZUsZqbHP1YDlkJNncQ19l92XqeXu6qvhY0HwAAgA+CFWSnX1/sN8m2iwMX+ifVRfsTJo6YWeQuJSmTTTNmW1MHO5pkQ9fxhGpUOt8aKxCIyPJIYUpXqorsi189v8RlfMPMa7bcmxxQueW0fgVy9rBsfdxu05FaZWoY3TJFytVTd/cl+7VVfatBGt1ta/7YK93qqbx8qv1aC5oPAADAB8EKshCTnbqNiXnl9tEVj1IPZ2yU/jZ54aKdlOLiSatEIloyd8jGJ/EPOHJcv7Gm+lZZYiZzCjKC5gMAADAIVlB4k0rsqj9F1dJcbY8+n/qolWXWhwvjZL9dMrGscq2sdlctK54n2yvtUp6z/cnVv5BOPMBoe09arepqvdL+e/9G+Y6g+QAAAJIRrGB0iFfZshvvx4OihSYoirX4l/IgkamqNaBHdlnV1XbJ1jaTlFLlSwmaDwAAwAfBCgrvSo/dqF132+vV6Nz9OJKm2+Oc2VW2EjuTNg38TyW2mym4ohK5zUyOeGcviVUgsuhWqbESUkXLJ1vP57tdbW2C5gMAAPBBsILC6zshB/rVc+TupN6+BpHVG5jIzmPPyJqEgCi1gf/gKJFbc13XIRoUMncd8u5R/TxLaj2Xq1LqrIEfz8i7TomJJWg+AAAAbwQrGAQXZNs5u7evhxc2yPaKeVKVcCFfJqsr1kpr9VpZbVLyZfcGFpFvFqh3sewdl9etAh21rrNXJLWXUetZ6r88NbWLZYnV169I+ap7pX6mPR0Gultlq9euVWtVIFU50P3wzEoVYOmBHZWkLoq1oPkAAAC8MIJ9HsbeCPYm2UUP/KjHU/EaXd55z1f/aasXLq/vdUs3j7jiFdK6sDphTI9keuT8A+cOubonzm/94tLOW3eJ7N3T2FCMYJ84jzQ8RrSP1tVLo1US4uH8Edny+OGkKne2oPkAAACSUbKCQXOyq0kWHGuRnbFY4sVpv2lHciRzoJK1vhPykppPOnrk/Icr18v2dOOtBNH3hqxR63lQrZebDo52dhzyDFS00A4KaXTu2SVbduhl1KPOO3qlfd/+tAFH0HwAAADJKFnJw+gvWRkpTAmJtKkAyK/BfpmsnrPeateStpQEAAAAoUHJCkY+MwhlZ8+JNA3pLzDAIwAAwAhDsIJRIzrjAdleWpYyIn5V8TzZNMdpP3NaXqJUBQAAYESgGlgeqAYWHqvnPGlV8Uorywb9AAAACAdKVjAq7D31jKzraLMauSeHj3ZD9x2FbdAPAACAQUfJSh4oWQEAAAAGDyUrAAAAAEKJYAUAAABAKBGsAAAAAAglghUAAAAAoUSwAgAAACCUCFYAAAAAhBLBCgAAAIBQIlgBAAAAEEoMCpkHBoV0zJcHn3hAKmNvyy9f2C+fmtTMguYbOaYt/4n8qLpEOlqflleOm8Qkd6z9iXy/skRiHa/KL3b/waSOHqN9/YbFtPlyz7Iama22a8QkxTrelpbdo/M4KqwyuefRR+Q7kVPy2rPN8oFJBUIrwPGe9Xl33jr56zVzzIsB6f6zgKFGyQryNm15jVRKj7zzam4XSpny6Qv9v37iaXlwnkkYccqkak6Jeu6Rns/slBTTVkq1+kPRIpGbZJo1NYqM9vUbDmqb/uX6B+Q7rgsXLVJ5l/zo0XVyh3k9ltjnimzX/SYp0Rsu1iMX7QQgvIIc7zmcd6eV2J9LdEpOEaggRAhWkB91UqytVie7jkPyZk6RSqZ8WVzoh55zUXRKTvptm08/kNMxPdEjHac+GH13xUf7+g25MrnngbusixZ9x/SXzz4tPzOPX7aeUtv4zTFYUmDOFdkGH9Nusi/6Yp/xe0TIBTzeczjvfnrgb+Pf+bNnX5R3dD4CeYQMwQrycscyfSI9Ja/lWL0nc74sLvTDLquLogvy5gv6T+Jv5ZUDF0zaaDLa12+ITbtDZusflana4f5dfXq8eYxuY+dckV3wMW3uHOu47DhJlUSEXODjPeh5N7djCRgqBCsIbt46+X6lOq+15Xg3N5t8o+Hu5012sX3s4ogtGkLIcKHtYd5cUaeTrLdJaelIL7HFWDHkx3uOxxIwVGhgn4ex3cDeNFKVXBvHZ5nPNPqLtb0ov8jlztC0Mrlj2YNWfV0r2NFip+Sdt9+UN4+n+x6Vb21iPt2Ase3gfvngJr0sJfLOjr/1qLLmn+/iXI/G9T6NGSVjJwNmu8VelZ9ZpVFqvsvvkepq+89M09UEWpLuvg0Iun45CrR+rnU7KFZDUl0/29pvrzbLm2I3Lk1Iy2E/BN1/mbbLNLWutXep7e9k1FUu2g7JWwf89kEQ8+XBR2ukMqIvsNPxbiyu23L8qFoG1mGa+r4HXN+ntudrant+kLzAOR1Hhdh/uch2m2jJ28Usa7xxfa7H0VDtd1vg/acEWc5p81bK3SrPwLbtUdvjlH08pFu5XM+7VjuMuySitrV9PkuWvJ8S5bVd1GercmysroX6eA903k2Vsl2zMJTHA8YuSlYQzLx71B+JSMfb2Z8ILVnmcxr9xXqyD1T0SfMv1z9i9YASP29qkTnynTWPyF8uLzMJSfQf5xOp+XQDxu+v/4k8WKX/BHqkJ3mB0+ZbJ3dbbW4SGyp6N2bU/60Z2nOY6gBWKY0zX9cFlhapfEBqvdYxw3L6rl8AwdbPVD2QufKgaUhqUftt9jK9TxPTvrNsvj3tGKT9579d9AXF0/IjdXEw8AetlUhl9QPyo0dXFq4jAV3CmNVFubd4KYJaB30h8tdqWyZcCOnlT1q/3I+jPPdfrnLZJil1751qLio91+NoKPe7EWT/BV5Otd9/tOaupAtl9RtwjqN53ufPQOfdjKXOrv1kJyQItl30jQl1MW5+j+5l1ev4oyd+Ivd4bpjwH++B/1eSuLdrZkN/PGDsomQlD2O3ZEWdpAa1q+L0d9U8qT9M585S4p3RMvVndo/8SF2Q6JNw6h0js0x6Ui3Xa68O3EG07hjpE7F+kbLMQfMlMcudsZtI87mY+vMW9WcWse4cvqnmqYM5/SesLxbUZMqdyoHljJcYBFnOoLJZP33RqO+y6mm1/L/U+87ksySnJaxj/vsvt+3i5DN3D0+o5XLe1N2LPqAuhFTGwen208w7631ljiNdivl2iXVRYR0bB51lVr+beSIfuO98u7Z71sdRXvsvXzluE7Os+iJ44Dhy7sBncxwN5X4PsP8CL6dzzlX5Wl9R7znfqfb7vHvM8eBx/gzye1HsO/hpunR3flOev5Ug28VZPz1tr+Nb6n1nWeOlayP6eHcx+yW35TLz89zmyYZzu2AsomQFORusrooHpL+rlkqdOM0fpj45JjZEVH9IB5rll23q4kRKZPbcxLt8d6zVJ1xFn6DVH4JzwarpBoy/aD1lv0hqO5NNPqszlgxtbuw7Yj0Z6887d86su25tL6p56gss58/4gnxw8G17fkmc5dR/5r/Y7b9+ud6By1ZW62fuslqBgbPvPusx28+VZrjvxua7/3LdLnY+dYGrLr5e0dUc3G9++gd581V7P0RKvO9C5yXndlxOicccdbGpLwxftI+NeGb1u0m+0A1yHOWx//KW4zZx2gAkHkf2e5mPo6He77nuvwIspwre9EX8ALXf9fHw7IvWd6bc6Al43s3YbihtyUvu22Xa8gftQEX/HnWj83igoqnPq2X9xY5XrZsd7lUcWcf7gGz/VxKY+WVzfA7rdsGYRLCC3EwbrK6KXXK9ALGCIPVxdfHhdxfn0xN28BApvclO0NQyVVsZ7QuqdBIaHGaZL/OJ3+lyNXOPZ/afu74oSN+GJ2F+ruXUdzzTyaW6XfayWz8nEEuoGmguVtxpzufiy1qA/Zfbdpkvc3Q+dZH0/fVPW2MApTycEobBkLHqTBLnOFIX5rFW+wItnaDHUeD9VwjOfHJqXK8+ry+usz2Ohmu/57j/8lvOC9Jj7di7pHbtfJmWUn9HXdAnHcOBz7vqvGDfjPI/L9xhVcH0+a0E2C536/8efXGdroRCXWQnruMIO97jsv9fSeDML+PxOczbBWMSwQpyMnhdFbvkeJJ27tKdPpHpJJvIucuarlTB6w5V9vkynfidEqRMQZn5c1fb75TPH3N8mVzzC7p+hZPd+nndZbUvVhLT7M8NtAEa/P2XtF1MTznDxdkmWf/OneMozcWkW9DjKOj+KwSv+fhzH0dWQgqv42jY9nuO+y/f5fxg94vyWkeP1WbnR9ZF6E/kweUqcDHvJwv6e4l3x+t7XnD2k89+zXW7OMFNx4nsqhQ7RtrxHpft/0oie35ZHJ/DvF0wNhGsIHvzBrGrYpfsLvQdrj+2dGdmjwAo85+ta2BK13dnny/Did+c9DPfFXb+fPyrxXldMAZdv4LJav2cu3TuZfDap+Zzrm0w+PsvMZ/zu9R35QcGUfN+5NSDXVay/J275HaxE/Q4Cr7/8pfrNgl2HA3Xfs/1YjX/5bygApa/lZ/tUEFLmy4RMQ2lraAluTpP0N+L4pWWwNlP3iUDOV/EZ5yft5F2vMdl/b/iZuaXxfE5vNsFYxXBCrJUJvfcpf4kdNWZnE5AueezLxgKeQfWLIOSXQDkyHxx4y27fPZJP/HCyJNzJyubO5G5/LHF73AW8gJyQFbr53nX02w/d5rzuZzuFgbcfxm2y/DUw851XfK42PHlcRwN6v7LxGM+6WRchvTbbGj3e/D9l/dyfmracOgLzh2vSkdMBy0P+vSUlY73ede52PU7F09Le74bjN91eiPjeB+Q9f9KAmd+2R+ftEfBUCJYQVacBoqZuhxOlnu+XO/AmrrWMkfmzLMSUrgbV76VEgCVSIm7OnWc7hlINyJUPE/gQfMNiN/FzbBh4neyfO+UpftjS23carF6bDH1inP4g8pFVuvnddfTXKxkdzc2+P7Ldbt82qMbC6s/6Tl3+FaNmTavbHC668z5Yj/Xi52Ax1He+y8PzjbJklPFK9fjaHj2e+4Xq8GXc748qNupmFcJPv2DvPK27mwi+TgLft71Kr1yWL2EmUb73r+V3LeL09lDpPoeucNOSaWO++T1H1nH+4Bs/1cSeB2zPoZ1u2DMIlhBFkwDxY5Xs6sjHBcgX4CT9Acn7Z6bKtckjQWgLzx1v/pW48rUXsguXrRPupVr1skdrjOrHhjtwUdNF6ZK8gk8aL5Ezh3COVLtqmIxbd78hO/U0v25W5w/mqQ2GM52iVTrsQ7096o/ELNNrLEvrPmnu3jLR3br53WXNdu0oPsh8HY5fkI69HPkLmsMgYR5Or+1NY/I3T4Xb/nIfKGdZIiOo3z2X8FU1sg9ruW194XaP+a1I+hxNCz7PcjFasDltBrK63Yqj9r73ZVNvakCGVM6kizoeddWYo23E5+Xno8es0Pl6eiwj2vP30qQ7fLpB3LaBFbff1SfK9zLqm9q2OO0pIytM5KO97js/1e86AAk/jm9bdz71TGM2wVjF+Os5GGsjLNi3e3KcVRbLVA+V7/96ej6su4A6I61T8cvTlOpP0zPZVB/kFZf8R5ip+S1UyXyfc/lD5ovkb197Is4t8R1KzPjA6jv9Rlzxvme5G2i+W0Xa2yRi+rPO8B+zVY262cvX+L+sdPc6+u3DYLvh8DbJcPvM3GsicLx2k5pmeXUjZBzqTfut11sqfPPb//ly/le8zJJIY+jId/vAfdf0OX0O1bjVL7kLqi1XH8vFt9ltD9/cq5elvTHX87bZZprLCAPviPYD/V+N3I+3l2y+19J5nMujb3tPcbLMG0XjF2UrCA9dZIf9K6KXZw7sOml3h39YPfT8ks9tol1B82I6QGr1J/ss34n/D/IKztelXfMnTyLztP6ojpBN5tqBl7F6UHzJfr0wCtW7zsD7OVNrKqWudpDujvG9nZ527pbqQeU7FB/yq/t0OMSfCAlg9m4Xsm8fl71z01awvr6bYPg+yHwdjnebOrxu9dLzdbK/3TSWBOF4rWd0gtakpHbcZTv/svXBXnzhRcT978S04Gq2heJF2b5HUdDvd8Dl0QFXM5PD+iG9faxlLDr1fdYx5NPvkDnXbWMXucF5/PpqjEF3i6f7rfHiklaP31T4x3dHbxXoKKNkOPdLbv/lWT6XKrOh66No4+jd9726TFxWLYLxjJKVvIwFkpWUu+SZidoPgwVcyfN787ZmMV2AQAgTChZgb95Q9NVMYZefEC3NGONjEVsFwAAwoVgBT7KhqyrYgwCXUfba1C3hMavp6RtrO0jtgsAACMK1cDyMJrXL21j0zSC5kOBZWhQqusxB2m8OeKxXQAAGFEIVvIwFtqsYCTT3XI+KNWV9hgXFt349dQheevAWG4AyXYBAGCkIFjJA8EKAAAAMHhoswIAAAAglAhWAAAAAIQSwQoAAACAUCJYAQAAABBKBCsAAAAAQolgBQAAAEAoEawAAAAACCWCFQAAAAChRLACAAkmyua/KJXmtcUSNSn+Jkj9WvVZ9fnnvz3RpKEwctkPAIDRimAFGNUGLqYTLvpuv9FOU4/Nt5s02G6fKEvUU3fnVem0U/xFJsq3JtuT5QsnSo09iUJIux+c3/VUqY+YJMRFby+WzWunxo9xvZ02q2A66+CbANHg/AmEAcEKMFZc/tLjou+a/PGSmYSlZpYuIbkm7338pZ2QTuyqvHfZnuw+dlUO2ZMogJz2A+Jq7psqjcsnyZLJ402KNl6WLLxRGtfeSEAdFOdPYNgQrABA3ES5U98+7eyTXTE7Jb0vZdfui7Lu7y7KY7+7atKQv1z3A7Tot6dKQ1QHKdek/VivbFG/S/3bXPerL6RdB9WTJ0oDpSYARhiCFWC4zFwqm59rkOaXG+T5uhKTWGhfyifmzn+CS9ek20yOGhFd9cWumvH8tyeYxNxEv11sVT1qP0PgMZzYD0FMlLqFdmlK+4FLsvV3rpKA2FXZulsFLHp68iSp8626NF5uMdUaoY2h8ycQYuPmL1h43UwXXEVFVLq6Mtb6HrFG+/oNKJPVFTXy45LZEi0ySRKTzthbsuXccTnZZ5I8VJWukEdnVMuy5HynVD6TEle8QloXVku0v03WHXkj9X21HJsWr5eHi2Ky81iTbEuab1WFuvCfIQPvFc+TTTPuluWRSPxOYmesxXve6rurSmukcUaJWkenEnyaZXV4zaP/tLx0erfsTbNdtJqNDdKwyLyQXml9apfsOmteFlDNfaXSoBau+1ivPKYuYCzqwv75H0yScrkqTX/3hU/1pQkSvX2SbFg0UcrNBUx35xVpae+TrlunSuNCkdZfXUq5863v7ia8F5ko9UuK5VvR8Wp+tu7OL2T7P3m3RbDnOUHN06nGoi4MOvt8Pj/AWU/bNc9lS0/XT58iayb7bRPnffMyScL2dbGXS3/nFbn5vhtljXPnW19Qfqi+MyXNypbIaxtevirvHb0iuz70ryYVvf3GhP3nxXO5febX8s9qu/hu0wlS8+1JUht1z8/su3a177LeF5n2g+Z8Jsh+VgKtnxJgP+R+PJh1kyuyZXefSlPbVf1GahM+f0V9Xr/nottRLJ8octnJ58H5jJrfOjU/J+35DL+ROHe+wBLXT2+Puj9TwalzvF9Wx8HRL9RxkLw9A24XlyDHQ/DzJ4BCoWQFGcyT7SpAeHaGO1DR1MV5pFaaFzbI9ooyk+amA4snpbnSHahoJl91g2wqNkmDQAcu7y+slYddQYSmp1ODJHsdmyv1Orpb66ZfVt95FM2WZxc+Ka2e22Xodak/f+18r+vPP/alnNfP6r0uKyGZfWHQqC5s3H/s5dFJ0vCDqbLBvcJp6Au15h/YF+POBYWmp1MuKNRFy+b4PJ1ARVN5ozdK42A3plbztxrLdw5G25MJUqsvtNR2sI2XJYuKVaCSlLY8uU2B2g/3+WzDyRNlzfIpvg187bYLWV6EuvjuM12F6Ad+pVb2vmtYmDw/s+/Ub2ZztqVdg7ofgq5f8P3gltPxoI6BCnNM6KpdCZ9Xx2FjUnWu6BR7udN2DOGUCKiA0v07y/U3UhBq/er0b1Rtj4T2NWp6idqezff59K6X43ZxBD0egp0/ARTS+GllZU+b6YL7xjcmy+efe5Whjg6jff20qooH5a8ik0T6T8sT//KC/NePD8mL5/SjQw7+v38i/2HSDJl85Yg0f/5vJoetquKH8n/ofBKTgx3/l6w59Ws736Ve+fo35siir02SRWVl8sm5f5EOO4vIv5sl9WUVMvnLc/LK+TPSY5IH/Iksnb5E5e2XYxfek8P/0yQbpd/4ljz4jYh88bUy+auyGWaZ/2+1zGbeepn7/1V6EvKpQOXbtbLsa2pSfX7nmf9bHnKWVX3+k3F/It/8xgy54YtD8psrdg5L6Vr552+qeej1O/dPsuWDPfKMleeQ2i5l8h8iJRL9RlS+fil1OR1nL4yXWXOmS/mfqguMfXvlb95xz6BwLk/6mjw4a4Kc77wi78Qbg46TmbcWyRz5n7L/X/6nJP+Ka+6LyH+xYi19t/9zeez1f5NX2q/I7zvHyZTyiTJ7sr7PcV1On+yXD/r15wZMvrlIVpaNl75JE+SHc9SGvXxVmvb9D/mbt+3veKX9/5PfX1bzTMinLj7+i7po+bqaVJ9v/e3/kKfNPPXnPxt/g9xc9jW54VP3OiQ6e3mczCr/mpSr7+g+9rn8zUdfmXeyE533p/Kfy65L6z//W8o62b6SD/5FL0/i4/fjv67W9wb5Hxf+X/nHT1LnOfPWYnXxfYP86dd1KUBMnn77/5Ov6W0/+WvqkZT29Qnqt+Zax9v/RJ5Y9DXr7v1/T9qGn43/d/ItNd9ytW8/a78qCYVyt98o/6fKZ5Uwqf3nbMvffzFO5s76mvypdUe4V/5GpSUss8r34n+087Uf+zfZ/toX8pKznl9MUHknSHnZv5OvdSbu9+i3vyE/jKrfhLWv1fe+7Wwfta+/uEHmTlHzvOy9fZJl3g/aDTLv3+vt5f0b9BVw/QLvByX348FZtwnyrbnq4lr/bhL24QRZqeYlX/+aTHH9Vub/+z+xgryOk//me4xI/w0yf4n6TnX8dzvreOmqWQ79uCaz9Pu6dOYfLse3TfzxsX3hnp+B9StXx4UuDfnv/3zZ/GYGtqduXzPLfSwE3C6WoMeDEuT8CaCwKFlBVjp7DiVVa7ogJy/uljVHnpE1XRdMmlG8Qhpn6FvgdnWtDRdd7/cdl21HdshO6495tvx4EEoflkVmS+e5HbLgiK6K5V42tcwpVcfulmV6wqp6tlu2uZdVfX5vl1rHYzvUOpgkS5lsmjHbmjrYodavK7GamLVdOk6rqYgsj6RZv7OHZevjTbLuoSZ5bE9qaFZYPr3WXPbo4SZSLLXWrUl9Ia2rJQ3cUeyM9dl137P4d14SnWhVnVinPn8o5rorKWqeSVVtnDYKdhWWL5Kq1Hwph373hTz2q17vKlIOa9mcxu7u/Nkw9f3VheRvc61SlKXuY2q9rO/+Un7baV/0udM868Z/+IVs+ZVaH49teOh3l6TJ2nkT5OakEifnLruuVubelp0f9sljB3Q1nolyZ0pJwASpX2TfzbbbPCTeoe9Uy2LnHS/futWr9EHf1b+SVI1K7WudT+2X7PbJYO6HPNYv4H5wy+V4iNOBzd8l78MvzPxEppv9bM3bKjHI1DuVej9EV9ZW1ap/6nP9ZuztueWYfXwssXqE85D1drEFOx7ccjh/Aig4ghWkdTJ2yjoZR2c8INsr5klVNlW3JpXYxfCxt1LaldguyLZz+mJefW/JXKmypgoo1pIaQHkqk++WmKDqtFcbGSMh4FGK58pyXbVNBTgvJAQxLhdPykH1NCjrlyv1J75O/7EnXURavVh51T+faqpW+PbEpP64zVRaneriL6sL1AnyH6O6GogKjv7Zv765rnoxaHIZWyWghGokhjvNqW6SLH4hG5kgNXr8jPumyvNmDA27jc54uWWq9YmcJF/QxatfqYBxj19Q+OFVq5F2ubrwdle16fz4qlW9qHzhjfZ4HkGr6w3mfshj/bS890PWx4NDHw/e7SH8fisji3+31M7vSSZP8KjSNTjbJeV4cOR6/gRQcAQrSK/vDVlzrE0O9kdk2QzdRuVJeb9aPRbrtirewUtVkd2zVecVvyt55UqPfTGiPnublVA4aeeboFS+abWn6ZGPMzSGT+AEY0XV0qy3heej1i6xGYHidd/zvCDKPr/TA9GX8olncDT4wjymhz3AX6k0/2CKNOjxM3Q9fXcdfw+dJgiy2sC4Awdd1183sFZSgicnSJ08SRrNgHepjxvtErBksT557FdXpP2yGc/jB+bz6mI+l+BlUPdDPuunBNkPbvkeT+k5JXOZAtcR1tuXbp9iJvMR6HgAEBoEK8hMBSwbjjwjC47tkCfOnVaBS0w6iwaCl9Y5KmgxHwVGnhCP6XG7uvC3BvhT05evSvuxL6TpV72yRT10dTen2kuKeJUYu9F4/GJcN2bWyZ1f+JcuBOVUw1PL1nRMLau6OO/WjaVN8PL8fZlGUB+F+2EIOaUKviUEWmSCTLcmhu/GwLAYjuMBQMEQrCB7fXYbjg1HmmRNmw5eWlTgIlaPWY0ebU+ik0rNlAendKK/Rz6yEoZTidyaS89kTqlQrEUW6O2Q7uHZBfPIkMtd48JIX+d/sIR3TA/nrq9uFGy3ddDtLHR7h86sqsTZF6+J40HohuVfyJZ4N7kuTk9RuntaZzBBv4df17iaWjbdxmjr7kvymP6sGZBQ9wq2IU2PYIO+HwKvX777YWg4pQdeVdgc0Vt143olU09rBSrRCMwpBVMBWOF628rxeAAQGgQrSKuqNE2pSd9x2eC0PXEFJk47F4nc7dM98UAD9c6eEwMX830X7Z50fKqGVVU8IA8ndIOcr+PyunV3MSIPz17hv57FZYnv9Z2QA7qDAN/1y9KQDAqZu3h9cXXRk9iNrhEpdFWSq/Ku9YMZL2v+LM3o2hGv+usugQaFdNrLqGUI651V3dg8ocMBhwruzFSK22+02lG06kbhCRfiqQ3L42JX5T1dlShanHMX0dHb05Sa6AEJj9oBiH8APAT7IY/1swTZD0PJtLfxH/TRNWhkxoAwwI2DAMefd5W1gY4QCtZ2KcjxACA0CFbgT/fqVWmPM2JV9VIX7W5VenySShN0uNuJ9L0hLzlBgB6HpdSVTw+iaA3sqF+clpcSGsJflH81vYQ9665apua7aY4e8LHwt933nmuz/6h0+5PFa2WTe1mtgSLXSuvC9dKslmeA00GAWb+Utjt6EE2Vr3qtrDYpXmpqF8sSu06GlK+6V+pn2tPDzrmo01Um1ibW8daDqj3vVJ0ooEPtV+wASbcnUPOsv919saMHitTznSKNfmMvKDVLTDUdRTf0zuqC1Gl0nelO83BS22SDbvdhXsa3hzVui0lKYrc7UkGlT69d3r6UXVZQoYJGa1yU5LYmetBHNd+/SBoLRl2kblh+ozUOjlXVSwWVblFXuwDfdhtDsh8Crp8jwH4YWldlj9OL1nJ7XJv4Yul9oI4r67hN18FA0o2DxPYdumMB/99T7sefHk/F7AeTopfTHuxTv7gqLTn36uct2PEAICwYwT4PY2EE+9QR6D14jjjvjDZvXqbwHoVej1/yvgmAkunuiF+atF6ejaQbwT5ifS673sAMFZRZI+ebl6nSz8+XHrfl9G6fHtHUn/sQjWAfSHyEZg+6zv7libIkes3q2ji5fYE9Yvd4u1vSXC420s3T4j0/R5AR7O1l9R6JP1uZ1tdZrvYDF+NdLzt5sk3zpPaDroevB2J057Fk3JY6cPAeeT3tPDWVT/fG5N5euvF53aKBi1VPVrfU3tXH7Hnmsh8muC5q09Fd3Cb2HBVo/YLuB8XJm/3x4Kyb/2843XfqwQ/1YIme9LLqrpPNS09pfzup29OR/fE3sO+6dfVAz33olT+P7ZLH8QBg+FGygrROXrQb16/r0D2CJf47dOqL8Y4dHoGKdkG2xfOZJEtMOmMtsq7NI1DRLu5WeU6r7zavNT244zF7PJePrnj+++VH93jWZncekDDfDMt6sqvJarezM6Y+Z9IsajsdPKfy6XFbfAIV7VDLEWm3hkFWf5T7Xg9PoKJZvTt9Ia1mPBCbqd+9+4r8MeNFYgB6nn9nN87WFzEDrkl3p5pvSvehiXTpjDP+y8D4JekM/tgq+erUY04cSNoe+mLatJ041GvSksWuSkvCvkvlN/K6nqduZ6L3fUL9/svO/k/dtnq8Ct24fssBvQ8S56svAvXy+gUqQ70fAq1f0P0wDA79k8eyOsdQpkBFM8e+93684ps/9+Pvmrz3z/o3k7iseqyepqyD1izlcTwAGH6UrORhLJSsAKky3+EcEW6/UZqX2wP15VQCFHpm/4h/SYb+TM19U6w74cO+/qN2Pwy/eImQ7lQgNGOCDPX5Y4QdDwBSULICYEwK89gqeTHtP9I3Tv4yNAMLjtr9EAKdv+uzG91Hb8yi6+hRaoQdDwBSEawAGINCPKZHgVijyd+e2oOabvBef5/TBqNwjZiDGf37YXhdla26mpWa0l1HDwyGOTVYj2gj2Mg4HgB4IVgBMOaEd2yVAoj1SYt1C1n3tjQlZbT2xh/cKGt0A2zdBuFXWbRhGESjej+ExYdfeLQ/G0NG0PEAwBttVvJAmxWMTaOkzcooZ/fQNVGmTzYD7BlOr0d6zBDOXhh6w3P+4HgARi6ClTwQrAAAAACDh2pgAAAAAEKJYAUAAABAKBGs5IEqYAAAAMDgIVgBAAAAEEoEKwAAAABCiWAFAAAAQCgRrAAAAAAIJYIVAAAAAKHEoJB5qtnYIA2LzAvple7zl6Xlxd/IobMmCQAAAEAglKwU1BQpnz5LGn56v9SYFAAAAADBULJSSDMrpf6RlbJmeq+0PrVLdlG6AgAAAARGyUohne2Q3x7pNS8AAAAA5INgpcA6uy+bKQAAAAD5IFgpsGj5ZDMFAAAAIB8EK4PisnxCexUAAAAgLwQrAAAAAEKJYGVQzJKG55ZKzUzzEgAAAEDO6Lq44EqkZuO9UrtoipSblO59u+WxPT3mFQAAAIBsULIySJxABQAAAEAwlKwUWvX90rx+lsj5M9L04nty6CwlKgAAAEAQlKwUmN11ca+0vvgbAhUAAAAgDwQrg4KuiwEAAIB8EawMislyMz2BAQAAAHkhWAEAAAAQSgQrBdbZfdlMAQAAAMgHwUqB2Q3sAQAAAOSLYKWQZlZK3aop5gUAAACAfDDOSp5qNjZIwyLzwnH+iGx5/LCMtbH7AQAAgEKiZKWgeqX76BFpepFABQAAAMgXJSsAAAAAQomSFQAAAAChRLACAAAAIJQIVgAAAACEEsEKAAAAgFAiWAEAAAAQSgQrAAAAAEKJYAUAAABAKBGsAAAAAAglghUAAAAAoUSwAgAAACCUCFYAAAAAhBLBCgAAAIBQIlgBAAAAEEoEKwAAAABCiWAFAAAAQCgRrAAAAAAIJYIVAAAAAKFEsAIAAAAglAhWAAAAAIQSwQoAAACAUCJYAQAAABBKBCsAAAAAQolgBQAAAEAoEawAAAAACCWCFQAAAAChRLACAAAAIJQIVgAAAACEEsEKAAAAgFAiWAEAAAAQSgQrAAAAAEKJYAUAAABAKBGsAAAAAAglghUAAAAAoUSwAgAAACCUCFYAAAAAhBLBCgAAAIAQEvn/AQG45Ieks0LkAAAAAElFTkSuQmCC;" parent="1" vertex="1">
          <mxGeometry x="550" y="590" width="811" height="587" as="geometry" />
        </mxCell>
        <mxCell id="PEve8mYUc9Qr4DA45eff-1" value="CMake: qt_add_resource()" style="rounded=0;whiteSpace=wrap;html=1;fontSize=27;fillColor=#dae8fc;strokeColor=#6c8ebf;" vertex="1" parent="1">
          <mxGeometry x="550" y="530" width="810" height="60" as="geometry" />
        </mxCell>
      </root>
    </mxGraphModel>
  </diagram>
</mxfile>
